<svg width="4604" height="1079" viewBox="0 0 4604 1079" fill="none" xmlns="http://www.w3.org/2000/svg">
<path d="M578.487 -0.000976562C517.682 -0.000976562 440.143 77.5385 440.143 212.533V278.356C399.974 252.701 353.119 238.752 294.547 238.752C128.868 239.304 0.00744629 369.845 0.00744629 531.611C0.00744629 693.377 123.286 823.917 293.431 823.917C375.436 823.917 440.143 794.349 482.532 753.629C510.42 792.117 545.006 813.317 575.138 813.317C598.571 813.317 610.276 800.484 610.276 772.032V38.4874C610.276 12.8327 598.571 -0.000976562 578.487 -0.000976562ZM306.264 670.519C224.259 670.519 172.385 610.831 172.385 531.059C172.385 451.287 224.259 391.598 306.264 391.598C388.269 391.598 440.143 451.287 440.143 531.059C440.143 611.384 388.269 670.519 306.264 670.519ZM1238.41 260.516H1180.95C1139.67 260.516 1124.61 277.251 1124.61 316.856V527.157C1124.61 611.947 1081.11 662.151 1010.82 662.151C938.297 662.151 901.478 614.18 901.478 524.924V316.856C901.478 275.571 884.743 260.516 845.139 260.516H787.684C748.08 260.516 731.345 275.583 731.345 316.856V529.39C731.345 711.24 822.834 823.929 983.484 823.929C1054.89 823.929 1118.48 796.041 1163.1 747.506C1189.88 789.907 1226.69 813.329 1259.61 813.329C1279.69 813.329 1294.75 800.496 1294.75 772.044V316.856C1294.75 275.571 1278.01 260.516 1238.41 260.516ZM1691.38 823.929C1863.74 823.929 1992.04 693.4 1992.04 531.622C1992.04 365.943 1863.19 239.316 1691.38 239.316C1519.56 239.316 1390.7 369.845 1390.7 531.622C1390.7 697.301 1520.11 823.929 1691.38 823.929ZM1691.38 670.531C1613.84 670.531 1562.52 610.842 1562.52 531.07C1562.52 451.298 1613.27 391.61 1691.38 391.61C1770.03 391.61 1820.24 451.298 1820.24 531.07C1819.67 611.395 1770.03 670.531 1691.38 670.531ZM2142.1 802.74H2199.56C2238.61 802.74 2255.89 787.674 2255.89 746.401V41.2952C2255.89 12.8438 2244.19 0.0109657 2220.76 0.0109657C2163.3 0.0109657 2085.76 77.5504 2085.76 212.545V746.39C2085.76 787.674 2102.5 802.728 2142.1 802.728V802.74ZM2472.89 182.989C2524.78 182.989 2568.85 142.82 2568.85 91.4996C2568.85 40.1788 2524.78 0.0109657 2472.89 0.0109657C2419.9 0.0109657 2376.95 40.1788 2376.95 91.4996C2376.95 142.82 2419.34 182.989 2472.89 182.989ZM2443.89 802.74H2501.35C2542.63 802.74 2557.69 786.005 2557.69 746.401V316.867C2557.69 277.263 2542.63 260.528 2501.35 260.528H2443.89C2402.61 260.528 2387.55 277.263 2387.55 316.867V746.401C2387.55 785.453 2402.61 802.74 2443.89 802.74ZM3005.07 239.327C2934.78 239.327 2867.84 267.779 2820.99 317.984C2793.09 273.361 2756.28 249.928 2724.48 249.928C2701.05 249.928 2689.33 262.761 2689.33 291.212V746.401C2689.33 787.685 2706.08 802.74 2745.68 802.74H2803.14C2844.41 802.74 2859.48 786.005 2859.48 746.401V535.536C2859.48 451.298 2908.56 400.541 2980.52 400.541C3053.61 400.541 3092.09 449.629 3092.09 537.768V746.401C3092.09 787.685 3108.83 802.74 3148.43 802.74H3205.89C3245.49 802.74 3262.23 787.674 3262.23 746.401V529.401C3262.23 352.005 3171.87 239.327 3005.07 239.327ZM3825.64 634.828C3875.85 597.457 3906.53 541.106 3906.53 476.4C3906.53 449.629 3900.95 425.643 3890.35 402.21C3946.7 374.323 3967.89 323.554 3967.89 275.583C3967.89 227.611 3948.92 213.661 3921.03 226.494C3821.18 272.233 3807.24 274.466 3741.42 262.75C3700.13 255.499 3670.01 249.917 3629.84 249.917C3555.65 249.917 3494.85 273.35 3443.53 315.739C3395.55 355.907 3371 414.479 3371 476.4C3371 541.106 3400.57 597.446 3451.89 634.828C3384.95 669.967 3338.1 744.168 3338.1 832.296C3338.1 977.891 3455.24 1078.86 3637.66 1078.86C3828.99 1078.86 3938.33 967.303 3938.33 821.708C3939.45 733.568 3892.58 667.734 3825.64 634.828ZM3638.77 388.26C3700.69 388.26 3738.62 420.061 3738.62 484.203C3738.62 534.972 3696.23 580.146 3638.77 580.146C3581.32 580.146 3540.03 535.524 3540.03 484.203C3540.03 423.963 3579.08 388.26 3638.77 388.26ZM3638.77 938.84C3564.58 938.84 3509.35 890.868 3509.35 829.511C3509.35 761.455 3561.23 720.171 3638.77 720.171C3717.43 720.171 3769.3 761.455 3769.3 829.511C3769.3 891.985 3715.2 938.84 3638.77 938.84ZM4303.15 823.929C4475.53 823.929 4603.82 693.4 4603.82 531.622C4603.82 365.943 4474.96 239.316 4303.15 239.316C4131.33 239.316 4002.47 369.845 4002.47 531.622C4002.47 697.301 4131.9 823.929 4303.15 823.929ZM4303.15 670.531C4225.61 670.531 4174.29 610.842 4174.29 531.07C4174.29 451.298 4225.06 391.61 4303.15 391.61C4381.8 391.61 4432.01 451.298 4432.01 531.07C4432.01 611.395 4381.8 670.531 4303.15 670.531Z" fill="#58CC02" style="fill:#58CC02;fill:color(display-p3 0.3451 0.8000 0.0078);fill-opacity:1;"/>
</svg>
